<svg width="45" height="38" viewBox="0 0 45 38" fill="none" xmlns="http://www.w3.org/2000/svg">
<path fill-rule="evenodd" clip-rule="evenodd" d="M4.65796 18.5477C3.60986 16.9553 3 15.0488 3 12.9999C3 7.41982 7.52358 2.89624 13.1037 2.89624C17.424 2.89624 21.1109 5.6078 22.5556 9.42188C24.0002 5.6078 27.6871 2.89624 32.0074 2.89624C37.5875 2.89624 42.1111 7.41982 42.1111 12.9999C42.1111 15.0487 41.5013 16.955 40.4534 18.5473C36.6482 24.9894 26.6101 32.7765 22.5556 35C18.5011 32.7765 8.46328 24.9897 4.65796 18.5477Z" fill="white" fill-opacity="0.3"/>
<path d="M4.65796 18.5477L6.81047 17.2762C6.78989 17.2413 6.76847 17.207 6.74622 17.1732L4.65796 18.5477ZM22.5556 9.42188L20.2176 10.3074C20.5857 11.2791 21.5165 11.9219 22.5556 11.9219C23.5947 11.9219 24.5254 11.2791 24.8935 10.3074L22.5556 9.42188ZM40.4534 18.5473L38.3651 17.1729C38.3428 17.2067 38.3214 17.241 38.3008 17.2759L40.4534 18.5473ZM22.5556 35L21.3535 37.192C22.1023 37.6026 23.0089 37.6026 23.7576 37.192L22.5556 35ZM0.5 12.9999C0.5 15.5522 1.26126 17.9342 2.56971 19.9221L6.74622 17.1732C5.95847 15.9764 5.5 14.5455 5.5 12.9999H0.5ZM13.1037 0.39624C6.14287 0.39624 0.5 6.03911 0.5 12.9999H5.5C5.5 8.80053 8.90429 5.39624 13.1037 5.39624V0.39624ZM24.8935 8.53637C23.0929 3.78257 18.4969 0.39624 13.1037 0.39624V5.39624C16.3511 5.39624 19.1289 7.43302 20.2176 10.3074L24.8935 8.53637ZM32.0074 0.39624C26.6142 0.39624 22.0182 3.78257 20.2176 8.53637L24.8935 10.3074C25.9822 7.43302 28.7601 5.39624 32.0074 5.39624V0.39624ZM44.6111 12.9999C44.6111 6.03911 38.9682 0.39624 32.0074 0.39624V5.39624C36.2068 5.39624 39.6111 8.80053 39.6111 12.9999H44.6111ZM42.5417 19.9217C43.85 17.9339 44.6111 15.552 44.6111 12.9999H39.6111C39.6111 14.5454 39.1527 15.9762 38.3651 17.1729L42.5417 19.9217ZM23.7576 37.192C25.9966 35.9642 29.6689 33.3394 33.2364 30.2439C36.7857 27.1642 40.494 23.3942 42.6059 19.8188L38.3008 17.2759C36.6076 20.1425 33.3943 23.4871 29.9596 26.4674C26.5432 29.4317 23.1691 31.8123 21.3535 32.8079L23.7576 37.192ZM23.7576 32.8079C21.9421 31.8123 18.5681 29.4318 15.1517 26.4675C11.7171 23.4873 8.5038 20.1428 6.81047 17.2762L2.50545 19.8192C4.61745 23.3946 8.32567 27.1644 11.8749 30.2441C15.4424 33.3395 19.1145 35.9642 21.3535 37.192L23.7576 32.8079Z" fill="white"/>
</svg>
